<?xml version="1.0" encoding="utf-8"?>
<svg xmlns="http://www.w3.org/2000/svg" viewBox="178.876 124.25 134.704 167.083">
  <g transform="matrix(0.1, 0, 0, -0.1, 177.717331, 298.082611)" fill="#000000" stroke="none">
    <path d="M555 1715 c-201 -44 -361 -168 -450 -349 -65 -131 -75 -190 -75 -456 0 -267 10 -325 75 -457 104 -211 311 -347 550 -360 61 -3 113 0 164 11 241 51 440 242 501 482 17 67 20 111 20 324 0 213 -3 257 -20 324 -46 182 -178 346 -342 425 -139 68 -284 87 -423 56z m258 -130 c176 -46 311 -171 376 -349 25 -70 26 -76 26 -326 0 -250 -1 -256 -26 -326 -81 -223 -277 -364 -502 -364 -240 0 -449 164 -512 400 -21 78 -21 502 0 580 49 184 190 330 370 381 75 22 193 24 268 4z" style="fill: rgb(15, 28, 133);"/>
    <path d="M650 1370 l0 -50 -45 0 c-45 0 -45 0 -45 -35 0 -35 0 -35 45 -35 l45 0 0 -50 0 -50 34 0 c34 0 35 1 38 48 l3 47 48 3 c46 3 47 4 47 37 0 33 -1 34 -47 37 l-48 3 -3 48 c-3 46 -4 47 -38 47 l-34 0 0 -50z" style="fill: rgb(15, 28, 133);"/>
    <path d="M457 852 l-219 -127 227 -3 c124 -1 326 -1 448 0 l222 3 -219 128 c-120 70 -224 127 -230 127 -6 0 -109 -58 -229 -128z" style="fill: rgb(15, 28, 133);"/>
    <path d="M256 608 c3 -13 14 -39 23 -58 l16 -35 391 -3 390 -2 22 45 c39 81 74 75 -414 75 l-435 0 7 -22z" style="fill: rgb(15, 28, 133);"/>
    <path d="M400 399 c90 -75 243 -112 369 -90 76 14 176 58 206 91 18 20 17 20 -291 20 l-309 -1 25 -20z" style="fill: rgb(15, 28, 133);"/>
  </g>
</svg>